<!DOCTYPE svg PUBLIC "-//W3C//DTD SVG 1.1//EN" "http://www.w3.org/Graphics/SVG/1.1/DTD/svg11.dtd">
<!-- Uploaded to: SVG Repo, www.svgrepo.com, Transformed by: SVG Repo Mixer Tools -->
<svg height="800px" width="800px" version="1.1" id="Layer_1" xmlns="http://www.w3.org/2000/svg" xmlns:xlink="http://www.w3.org/1999/xlink" viewBox="0 0 512 512" xml:space="preserve" fill="#000000">
<g id="SVGRepo_bgCarrier" stroke-width="0"/>
<g id="SVGRepo_tracerCarrier" stroke-linecap="round" stroke-linejoin="round"/>
<g id="SVGRepo_iconCarrier"> <path style="fill:#5A5D6F;" d="M434.029,389.951c15.524,11.115,25.644,29.298,25.644,49.843c0,33.838-27.438,61.265-61.265,61.265 c-1.707,0-3.402-0.066-5.076-0.208c-31.464-2.582-56.2-28.926-56.2-61.057c0-33.838,27.438-61.265,61.276-61.265 C411.69,378.53,423.997,382.764,434.029,389.951z M420.671,439.795c0-12.297-9.966-22.274-22.263-22.274 c-12.308,0-22.274,9.977-22.274,22.274s9.966,22.274,22.274,22.274C410.705,462.069,420.671,452.092,420.671,439.795z"/> <path style="fill:#ffe433;" d="M434.029,215.346v174.605c-10.032-7.188-22.34-11.422-35.621-11.422 c-33.838,0-61.276,27.427-61.276,61.265c0,32.131,24.736,58.475,56.2,61.057c-1.433,0.142-2.888,0.208-4.354,0.208h-84.655 c-24.878,0-45.041-20.163-45.041-45.041v-84.6v-35.752c0-66.451,53.869-120.32,120.32-120.32H434.029z"/> <path style="fill:#5A5D6F;" d="M434.029,182.143v33.203h-54.427h-18.719v-33.203c0-4.639,3.763-8.402,8.402-8.402h8.643h42.743 h4.945C430.255,173.741,434.029,177.504,434.029,182.143z"/> <g> <path style="fill:#9DA6BA;" d="M420.671,153.961v19.78h-42.743v-19.78c0-55.292-44.986-100.278-100.278-100.278 S177.384,98.669,177.384,153.961V400.41h-8.993h-25.162h-8.599V153.961c0-78.868,64.164-143.021,143.021-143.021 C356.518,10.94,420.671,75.093,420.671,153.961z"/> <path style="fill:#9DA6BA;" d="M398.408,417.521c12.297,0,22.263,9.977,22.263,22.274s-9.966,22.274-22.263,22.274 c-12.308,0-22.274-9.977-22.274-22.274S386.101,417.521,398.408,417.521z"/> <path style="fill:#9DA6BA;" d="M259.282,501.06H52.327c0-11.487,4.65-21.88,12.176-29.396c7.527-7.527,17.92-12.176,29.396-12.176 h21.005h81.8h21.005C240.673,459.487,259.282,478.096,259.282,501.06z"/> </g> <path style="fill:#5A5D6F;" d="M196.704,428.723v30.764h-81.8v-30.764c0-15.634,12.68-28.313,28.324-28.313h25.162 C184.025,400.41,196.704,413.09,196.704,428.723z"/> <path d="M444.97,384.626V215.346v-33.203c0-8.574-5.614-15.852-13.358-18.382v-9.8C431.612,69.067,362.545,0,277.651,0 S123.69,69.067,123.69,153.961v135.954c0,6.041,4.898,10.94,10.94,10.94c6.042,0,10.94-4.899,10.94-10.94V153.961 c0-72.83,59.251-132.081,132.081-132.081s132.081,59.251,132.081,132.081v8.839h-20.863v-8.839 c0-61.326-49.892-111.218-111.218-111.218c-61.32,0-111.207,49.892-111.207,111.218V389.47H145.57v-30.085 c0-6.041-4.898-10.94-10.94-10.94s-10.94,4.899-10.94,10.94v35.313c-11.775,6.784-19.725,19.49-19.725,34.026v19.824H93.899 c-14.026,0-27.214,5.462-37.127,15.375c-9.922,9.907-15.386,23.097-15.386,37.138c0,6.041,4.898,10.94,10.94,10.94h206.955 c6.042,0,10.94-4.899,10.94-10.94c0-0.236-0.014-0.468-0.017-0.703c9.452,7.292,21.283,11.644,34.118,11.644h84.655 c1.504,0,2.971-0.073,4.401-0.186c1.631,0.115,3.309,0.186,5.029,0.186c39.815,0,72.205-32.391,72.205-72.205 C470.613,418.5,461.119,398.282,444.97,384.626z M420.671,184.681h2.418v19.725h-51.266v-19.725h6.105H420.671z M277.651,64.624 c49.26,0,89.337,40.077,89.337,89.337v8.988c-9.585,1.141-17.045,9.307-17.045,19.193v25.643 c-54.695,12.681-96.392,59.65-101.142,116.941h-10.689c-6.042,0-10.94,4.899-10.94,10.94s4.898,10.94,10.94,10.94h10.229v13.872 h-10.229c-6.042,0-10.94,4.899-10.94,10.94s4.898,10.94,10.94,10.94h10.229v73.66c0,0.829,0.027,1.652,0.062,2.472 c-8.641-6.248-19.24-9.945-30.695-9.945h-10.065v-19.824c0-14.371-7.768-26.956-19.32-33.795V153.961 C188.324,104.701,228.396,64.624,277.651,64.624z M125.845,428.723c0-9.579,7.798-17.373,17.384-17.373h25.162 c9.579,0,17.373,7.794,17.373,17.373v19.824h-59.919V428.723z M65.267,490.12c1.516-3.978,3.871-7.623,6.972-10.72 c5.785-5.786,13.478-8.972,21.66-8.972h21.005h81.8h21.005c13.038,0,24.201,8.188,28.614,19.692H65.267z M270.222,456.019V335.666 c0-60.312,49.068-109.38,109.38-109.38h43.487v145.626c-7.835-2.852-16.154-4.322-24.681-4.322 c-39.82,0-72.216,32.391-72.216,72.205c0,18.246,6.823,35.663,19.214,49.043c0.406,0.438,0.828,0.856,1.244,1.282h-42.327 C285.52,490.12,270.222,474.823,270.222,456.019z M398.408,490.12c-1.442,0-2.837-0.057-4.181-0.172 c-25.881-2.122-46.154-24.153-46.154-50.153c0-27.749,22.581-50.325,50.336-50.325c10.576,0,20.69,3.242,29.25,9.375 c0.001,0.001,0.002,0.001,0.003,0.002c13.195,9.447,21.072,24.754,21.072,40.948C448.733,467.544,426.157,490.12,398.408,490.12z"/> <path d="M420.671,428.855c-6.042,0-10.94,4.899-10.94,10.94c0,6.25-5.08,11.334-11.323,11.334c-6.249,0-11.334-5.084-11.334-11.334 s5.084-11.334,11.334-11.334c6.042,0,10.94-4.899,10.94-10.94s-4.898-10.94-10.94-10.94c-18.314,0-33.214,14.899-33.214,33.214 s14.9,33.214,33.214,33.214c18.308,0,33.203-14.899,33.203-33.214C431.612,433.754,426.714,428.855,420.671,428.855z"/> <path d="M134.63,337.687c6.042,0,10.94-4.899,10.94-10.94v-3.282c0-6.041-4.898-10.94-10.94-10.94c-6.042,0-10.94,4.899-10.94,10.94 v3.282C123.69,332.788,128.587,337.687,134.63,337.687z"/> <path d="M381.954,278.974h24.801c6.042,0,10.94-4.899,10.94-10.94s-4.898-10.94-10.94-10.94h-24.801 c-6.042,0-10.94,4.899-10.94,10.94S375.912,278.974,381.954,278.974z"/> <path d="M381.954,311.795h24.801c6.042,0,10.94-4.899,10.94-10.94s-4.898-10.94-10.94-10.94h-24.801 c-6.042,0-10.94,4.899-10.94,10.94S375.912,311.795,381.954,311.795z"/> <path d="M381.954,344.615h24.801c6.042,0,10.94-4.899,10.94-10.94s-4.898-10.94-10.94-10.94h-24.801 c-6.042,0-10.94,4.899-10.94,10.94S375.912,344.615,381.954,344.615z"/> </g>
</svg>